<svg width="25" height="25" viewBox="0 0 25 25" fill="none" xmlns="http://www.w3.org/2000/svg">
<path d="M25 25H0V0H25V25Z" fill="#FF80E4"/>
<path d="M25 25H12.5V0H25V25Z" fill="#FF80E4"/>
<path d="M23.5352 23.5352H1.46484V1.46484H23.5352V23.5352Z" fill="#7F1363"/>
<path d="M23.5352 23.5352H12.5V1.46484H23.5352V23.5352Z" fill="#7F1363"/>
<path d="M7.15137 8.86719L9.22559 11.9609L11.2881 8.86719H13.0342L10.0693 13.0859L12.9404 17.1875H11.1943L9.22559 14.2109L7.24517 17.1875H5.48735L8.35845 13.0859L5.39355 8.86719H7.15137Z" fill="#FF80E4"/>
<path d="M15.9053 17.3047C14.1025 17.3047 12.9873 15.802 12.9873 14.1172C12.9873 12.207 14.2734 10.9414 15.7295 10.9414C16.963 10.9414 17.6004 11.7734 17.8037 12.125V8.63281H19.374V15.3828C19.374 15.5469 19.6043 15.8439 19.7373 15.8516V17.1875C19.4637 17.2421 19.241 17.2695 19.0692 17.2695C17.9354 17.2695 18.038 16.1211 18.038 16.1211C17.8114 16.5119 17.1359 17.3047 15.9053 17.3047ZM16.3155 15.9688C17.3008 15.9688 17.749 15.086 17.8037 14.9375V13.4727C17.7411 13.3009 17.1787 12.2774 16.2217 12.2774C15.1523 12.2774 14.6163 13.3382 14.6163 14.1524C14.6163 15.0472 15.2744 15.9688 16.3155 15.9688Z" fill="#FF80E4"/>
<path d="M12.5 8.86719V9.62739L13.0342 8.86719H12.5Z" fill="#FF80E4"/>
<path d="M12.5 17.1874H12.9405L12.5 16.5581V17.1874Z" fill="#FF80E4"/>
</svg>
