<svg width="25" height="25" viewBox="0 0 25 25" fill="none" xmlns="http://www.w3.org/2000/svg">
<path d="M25 25H0V0H25V25Z" fill="#FEC478"/>
<path d="M25 25H12.5V0H25V25Z" fill="#FEC478"/>
<path d="M23.5352 23.5352H1.46484V1.46484H23.5352V23.5352Z" fill="#994C0F"/>
<path d="M23.5352 23.5352H12.5V1.46484H23.5352V23.5352Z" fill="#994C0F"/>
<path d="M10.1318 8.86719H11.5615L14.7256 17.1875H13.0615L12.2881 15.1133H9.38184L8.62012 17.1875H6.95605L10.1318 8.86719ZM11.9951 13.9766L10.8467 10.707L9.65137 13.9766H11.9951Z" fill="#FEC478"/>
<path d="M15.4873 10.1914V8.63281H17.0576V10.1914H15.4873ZM15.4873 17.1875V11.0469H17.0576V17.1875H15.4873Z" fill="#FEC478"/>
<path d="M12.5 11.3347V15.6813L13.0616 17.1874H14.7257L12.5 11.3347Z" fill="#FEC478"/>
</svg>
