<svg width="25" height="25" viewBox="0 0 25 25" fill="none" xmlns="http://www.w3.org/2000/svg">
<path d="M25 25H0V0H25V25Z" fill="#FF5F96"/>
<path d="M25 25H12.5V0H25V25Z" fill="#FF5F96"/>
<path d="M23.5352 23.5352H1.46484V1.46484H23.5352V23.5352Z" fill="#7F1D32"/>
<path d="M23.5352 23.5352H12.5V1.46484H23.5352V23.5352Z" fill="#7F1D32"/>
<path d="M8.02051 17.1875V8.86719H9.63765V17.1875H8.02051Z" fill="#FF5F96"/>
<path d="M13.6924 17.3047C11.8896 17.3047 10.7744 15.802 10.7744 14.1172C10.7744 12.207 12.0605 10.9414 13.5166 10.9414C14.7501 10.9414 15.3875 11.7734 15.5908 12.125V8.63281H17.1611V15.3828C17.1611 15.5469 17.3915 15.8439 17.5244 15.8516V17.1875C17.2508 17.2421 17.0281 17.2695 16.8563 17.2695C15.7225 17.2695 15.8251 16.1211 15.8251 16.1211C15.5985 16.5119 14.923 17.3047 13.6924 17.3047ZM14.1025 15.9688C15.0878 15.9688 15.536 15.086 15.5908 14.9375V13.4727C15.5282 13.3009 14.9657 12.2774 14.0088 12.2774C12.9394 12.2774 12.4033 13.3382 12.4033 14.1524C12.4033 15.0472 13.0615 15.9688 14.1025 15.9688Z" fill="#FF5F96"/>
<path d="M17.1611 15.3828V8.63281H15.5908V12.125C15.3876 11.7734 14.7501 10.9414 13.5166 10.9414C13.1623 10.9414 12.8182 11.0169 12.5 11.1579V13.5291C12.6981 12.8823 13.2013 12.2773 14.0088 12.2773C14.9658 12.2773 15.5282 13.3009 15.5908 13.4726V14.9375C15.5361 15.086 15.0878 15.9687 14.1026 15.9687C13.2952 15.9687 12.7184 15.4143 12.5 14.7481V17.0539C12.8523 17.2143 13.2517 17.3046 13.6925 17.3046C14.9231 17.3046 15.5986 16.5118 15.8253 16.121C15.8253 16.121 15.7227 17.2695 16.8565 17.2695C17.0283 17.2695 17.2509 17.242 17.5245 17.1874V15.8515C17.3915 15.8438 17.1611 15.5469 17.1611 15.3828Z" fill="#FF5F96"/>
</svg>
